<svg id="Layer_1" data-name="Layer 1" xmlns="http://www.w3.org/2000/svg" viewBox="0 0 505.24 83.96"><defs><style>.cls-1{fill:#fff;}.cls-2{fill:#1d87ff;}</style></defs><path class="cls-1" d="M79.25,92.93h11v81.85H78.43V111.09L53.27,142.73H51.1L25.64,111.09v63.69H13.92V92.93H25l27.2,33.61Z" transform="translate(-13.92 -91.75)"/><path class="cls-1" d="M148,91.75q19,0,31.59,12t12.62,30.11q0,18.1-12.73,30t-32.12,11.87q-18.51,0-30.83-11.87t-12.33-29.73q0-18.34,12.42-30.35T148,91.75Zm.47,11.14q-14,0-23.09,8.79t-9,22.44q0,13.24,9.08,22t22.71,8.79q13.69,0,22.86-9a29.93,29.93,0,0,0,9.16-22.32A29.28,29.28,0,0,0,171,111.76,31.14,31.14,0,0,0,148.48,102.89Z" transform="translate(-13.92 -91.75)"/><path class="cls-1" d="M253.68,92.93h11.67l-34.61,82.2h-2.66l-35.27-82.2h11.8l24.61,57.48Z" transform="translate(-13.92 -91.75)"/><path class="cls-1" d="M274.43,92.93h11.72v81.85H274.43Z" transform="translate(-13.92 -91.75)"/><path class="cls-1" d="M304.31,92.93h46.41v10.43H316v25h33.52v10.49H316v25.43h35.8v10.43H304.31Z" transform="translate(-13.92 -91.75)"/><path class="cls-2" d="M398.55,142.37h4.39v32.74h-4.71V149.64l-10.07,12.65h-.87l-10.18-12.65v25.47h-4.69V142.37h4.44l10.88,13.45Z" transform="translate(-13.92 -91.75)"/><path class="cls-2" d="M426.06,141.9a17.56,17.56,0,0,1,12.63,4.81,15.91,15.91,0,0,1,5.05,12,15.69,15.69,0,0,1-5.09,12,18.1,18.1,0,0,1-12.85,4.75,17.06,17.06,0,0,1-12.33-4.75,15.8,15.8,0,0,1-4.93-11.89,16.17,16.17,0,0,1,5-12.14A17.31,17.31,0,0,1,426.06,141.9Zm.19,4.46a12.72,12.72,0,0,0-9.24,3.51,12,12,0,0,0-3.62,9,11.75,11.75,0,0,0,3.63,8.81,13.46,13.46,0,0,0,18.23-.07,12,12,0,0,0,3.66-8.93,11.69,11.69,0,0,0-3.66-8.75A12.43,12.43,0,0,0,426.25,146.36Z" transform="translate(-13.92 -91.75)"/><path class="cls-2" d="M465.57,141.9a17.58,17.58,0,0,1,12.64,4.81,15.91,15.91,0,0,1,5.05,12,15.67,15.67,0,0,1-5.1,12,18.06,18.06,0,0,1-12.84,4.75A17,17,0,0,1,453,170.74a15.81,15.81,0,0,1-4.94-11.89,16.18,16.18,0,0,1,5-12.14A17.28,17.28,0,0,1,465.57,141.9Zm.19,4.46a12.73,12.73,0,0,0-9.24,3.51,12,12,0,0,0-3.61,9,11.75,11.75,0,0,0,3.63,8.81,13.45,13.45,0,0,0,18.22-.07,12,12,0,0,0,3.67-8.93,11.67,11.67,0,0,0-3.67-8.75A12.42,12.42,0,0,0,465.76,146.36Z" transform="translate(-13.92 -91.75)"/><path class="cls-2" d="M489.07,175.07v-32.7h11q6.67,0,10.57,2a15.11,15.11,0,0,1,6.19,5.89,16.38,16.38,0,0,1,2.29,8.48,16,16,0,0,1-4.87,11.56,15.91,15.91,0,0,1-5.56,3.54,16.39,16.39,0,0,1-3.39,1,46.15,46.15,0,0,1-5.91.25Zm10.55-28.53h-5.86v24.35h6a24,24,0,0,0,5.46-.48,12.72,12.72,0,0,0,3.24-1.21,11.3,11.3,0,0,0,2.38-1.82,12.1,12.1,0,0,0,3.47-8.88,11.27,11.27,0,0,0-3.56-8.61,11.46,11.46,0,0,0-3-2,12.23,12.23,0,0,0-3.22-1.06A33,33,0,0,0,499.62,146.54Z" transform="translate(-13.92 -91.75)"/></svg>